/* XPM */
static char *c9f1a7359bce4c1c94e1c33fd58e092deeVzcxI8lvhAAgxY[] = {
/* columns rows colors chars-per-pixel */
"26 26 8 1 ",
"  c black",
". c gray15",
"X c gray24",
"o c #554E34",
"O c #515151",
"+ c #756B47",
"@ c gray57",
"# c gray72",
/* pixels */
"..........................",
".XXXXX.. ........ ..XXXXXX",
".XXXX.o+.@@@@@@@@.o+XXXXXX",
".XXXX.oo.OOOOOOOO.oo.XXXXX",
".XXX..oo.OOOOOOOO.oo..XXXX",
".XX.@.oo..........oo.@.XXX",
".XX.@.oo.oooooooo.oo.@.XXX",
".X.@O.oo.oooooooo.oo.O@.XX",
".X.@O.oo..........oo.O@.XX",
".X@OO.oo..........oo.OO@XX",
".X@OO.oo..........oo.OO@XX",
".X@O..oo..........oo..O@XX",
".X@O..oo.oooooooo.oo..O@XX",
".X@...oo.oooooooo.oo...@XX",
".X@...oo..........oo...@XX",
".X@...oo..........oo...@XX",
".X@...oo..........oo...@XX",
".X.@..oo..........oo..@.XX",
".X.@..oo.oooooooo.oo..@.XX",
".XX.@.oo.oooooooo.oo.@.XXX",
".XX.@..o..........o..@.XXX",
".XXX.@#............#@.XXXX",
".XXXX..##........##..XXXXX",
".XXXXXX..########..XXXXXXX",
".XXXXXXXX........XXXXXXXXX",
".XXXXXXXXXXXXXXXXX........"
};
