/* XPM */
static char *f157ba3420e84a01c16868cd98f6274370GupXtGlCUCu9Bb[] = {
/* columns rows colors chars-per-pixel */
"35 35 16 1 ",
"  c None",
". c black",
"X c #34373A",
"o c #6B211D",
"O c #307645",
"+ c #54595F",
"@ c #932E28",
"# c #A37452",
"$ c #CD5049",
"% c #44A662",
"& c #66AAB9",
"* c #C4A38A",
"= c #EAD0BD",
"- c #8DC0CB",
"; c #B6C1C2",
": c #E6F7F7",
/* pixels */
"                                   ",
"                                   ",
"           XX                      ",
"            X         XX           ",
"           X         X             ",
"            X  .......             ",
"  XX     ......%%%%%%%...          ",
" X X   ..%%%%%%%%%%%%%%%O..        ",
"    X .O%%%%%%%%%%%%%%%%%OO.       ",
"     .O%%%OXXO%%%%%%%%%%%%O.       ",
"     .OOOXX%%%%%%%%%%%O%%%O.       ",
"     .O..%%%%%OXXO%%%%X%%OOO.XX    ",
"     ..%%%%%OOXOO%%%%OXOOOOO.  X   ",
"    .%%%%O..XXXOOOXXXXXXOOXO.      ",
"   .%%%O..--X##XXX-:&&&XOOXOO.     ",
"   .%%O.-:::-X##X-:&:::-XOOXOO.    ",
"  .%%%.::&&::X..X:&::&&:-X..XO.    ",
"  .%%O.:&::&:XXXX:&:&::&:X==.O.    ",
"  .%%.&::::&:X++X:&::::&:X**.OO.   ",
"  .%%.:&&&&:-X..X-:&&&&:-X*=.OO.   ",
"  .%O.-::::-X####X-::::-X*==.OO. X ",
"  .%O.XXXXXX******XXXXXX.**.XOO.XX ",
"  .O..***==========*****...OXOO.   ",
"  .. .*===============**.OXOXOO.   ",
"     .;::;::;:::;::;:;**.OXOOXO.   ",
"     .;::;::;:::;::;:;**.....XO.   ",
"     .o@@@@@@@@@@@@@@o*.     .O.   ",
"     .o@$$$ooooo@$$$@o*.     ...   ",
"      .o@@o$@@@@o@@@o*.            ",
"      .;:;o$@$$oooooo*.            ",
"       .:;o$@$$o;:;:;.             ",
"        .+o$@$$o;:;:;.             ",
"          o$@$$o+....              ",
"          o$@$$o                   ",
"           oooo                    "
};
