/* XPM */
static char *f32112da001d424fc9ec1dd3357ca549tl2lIaTDOPMPUAaR[] = {
/* columns rows colors chars-per-pixel */
"15 20 117 2 ",
"   c None",
".  c #3F3020",
"X  c #3E3327",
"o  c #333538",
"O  c #333639",
"+  c #34373A",
"@  c #35383B",
"#  c #403120",
"$  c #543F29",
"%  c #735739",
"&  c #7B5D3D",
"*  c #3F007F",
"=  c #41007F",
"-  c #3D4044",
";  c #4E5257",
":  c #4F5358",
">  c #5B5B5C",
",  c #7F6140",
"<  c #7C644F",
"1  c #60656A",
"2  c #62676C",
"3  c #646A6F",
"4  c #646A70",
"5  c #656B70",
"6  c #676D73",
"7  c #686E74",
"8  c #696F75",
"9  c #6A7075",
"0  c #697076",
"q  c #6A7076",
"w  c #7A7573",
"e  c #70767D",
"r  c #806140",
"t  c #916E49",
"y  c #A37C52",
"u  c #AC8357",
"i  c #B1875A",
"p  c #BA8E5E",
"a  c #928378",
"s  c #B0947B",
"d  c #D3A16B",
"f  c #EAB377",
"g  c #410080",
"h  c #4F009A",
"j  c #4D2D84",
"k  c #737A80",
"l  c #757197",
"z  c #6D43B7",
"x  c #6900CD",
"c  c #7901EB",
"v  c #827DA7",
"b  c #8322F8",
"n  c #8B26FF",
"m  c #8A46F8",
"M  c #A768F9",
"N  c #AE6FFF",
"B  c #B177FF",
"V  c #C27FFF",
"C  c #7E868D",
"Z  c #7F868D",
"A  c #928A87",
"S  c #9E938D",
"D  c #858C94",
"F  c #8A9199",
"G  c #8B939B",
"H  c #8C949C",
"J  c #B0A094",
"K  c #8582A7",
"L  c #8A8DA3",
"P  c #8A88AD",
"I  c #8C90A4",
"U  c #9199A2",
"Y  c #9399A9",
"T  c #9FA4AA",
"R  c #99A0AD",
"E  c #9CA5AE",
"W  c #9EA7B0",
"Q  c #9FA8B1",
"!  c #A9A7A8",
"~  c #A0A9B2",
"^  c #A2AAB3",
"/  c #ADB0B2",
"(  c #A7B0BA",
")  c #C2AA97",
"_  c #CBAE94",
"`  c #D4B9A3",
"'  c #C6BAB1",
"]  c #E4C2A5",
"[  c #FBD3AF",
"{  c #B2BBC5",
"}  c #BABED2",
"|  c #C280FF",
" . c #C68EFF",
".. c #D09EFF",
"X. c #D5ABFF",
"o. c #BDC7D1",
"O. c #BFC9D3",
"+. c #DECEC1",
"@. c #C7D2DC",
"#. c #D4D8DD",
"$. c #CDD7E7",
"%. c #D1DCE6",
"&. c #CFC8F1",
"*. c #CFCBF0",
"=. c #DFC4FF",
"-. c #EADFFD",
";. c #DEE0E2",
":. c #D5E0EB",
">. c #DAE4EE",
",. c #E1E8EF",
"<. c #E3EAF2",
"1. c #E8EEF4",
"2. c #E9EDF6",
"3. c #E9E5F9",
"4. c #EBF1F6",
"5. c #FEFDFF",
"6. c white",
/* pixels */
"                              ",
"                              ",
"                              ",
"      r r , p y & . # #       ",
"    0 < t i f d u % $ X @     ",
"    0 A J ` [ ] ) S w > +     ",
"    7 O.<.6.6.4.:.:.{ H O     ",
"      Z ^ >._ s a ( k ;       ",
"      0 T 1.+.' ! W 3 +       ",
"      e / 6.6.2.$.Q 6 -       ",
"    7 o.>.6.X.B m W E G +     ",
"    7 #.3.=...N b l Y G O     ",
"    7 ;.-.V  .M c g L G O     ",
"    3 @.&.V n x = * L G O     ",
"    6 ^ } *.z h j I R G O     ",
"    6 D ^ @.P v K W U Z O     ",
"      + 3 W %.:.%.Q 4 O       ",
"          : 1 2 1 :           ",
"          @ @ @ @ @           ",
"                              "
};
