/* XPM */
static char *c670efb0720342b88688870d26ff6ac040J8TivnQjJgk3L3[] = {
/* columns rows colors chars-per-pixel */
"21 26 12 1 ",
"  c None",
". c black",
"X c #28282D",
"o c #24643A",
"O c #485058",
"+ c #65707A",
"@ c #389A5A",
"# c #BFA47A",
"$ c #45B8BE",
"% c #A0A8B0",
"& c #F5D9B0",
"* c #D8D8E0",
/* pixels */
"                     ",
"     O  .....  O     ",
"      ..ooooo..      ",
"  O ..o@@@@@@@o.. O  ",
"   .o@@@@@@@@@@@o.   ",
"   .@@@O@@@@@@@@@.   ",
"  .o@@X@@@@@@@@@@o.  ",
"  .o@oX@@@O@@@@@@o.  ",
" O.ooX@@@X@@@@@@oo.O ",
"  .XoX@@XOOOoooooX.  ",
"  .XXX@@X###XXXoXX.  ",
"  .#XX@X*XXX*$*XX#.  ",
"  ..#XXX$XOX$*$X#..  ",
"  .o.X*$*XXX*$*X.o.  ",
"  .oo.XXX&&&XXX.oo.  ",
"  .o...#######...o.  ",
"   .%%%.......%%%.   ",
"  .%**%+*XOX*+%**%.  ",
" .%***X+*XOX*+X***%. ",
" .%**.X+*XOX*+X.**%. ",
" .%%%.%+*XXX*+%.%%%. ",
"  ....%%+XOX+%%....  ",
"     .OO+XOX+OO.     ",
"     .XXX...XXX.     ",
"      ...   ...      ",
"                     "
};
