/* XPM */
static char *_36055f61851438cca96c4348baf85e6Ha8u05DmclnIbo9H[] = {
/* columns rows colors chars-per-pixel */
"20 26 11 1 ",
"  c None",
". c black",
"X c #28282D",
"o c #24643A",
"O c #485058",
"+ c #389A5A",
"@ c #BFA47A",
"# c #45B8BE",
"$ c #A0A8B0",
"% c #F5D9B0",
"& c #D8D8E0",
/* pixels */
"                    ",
"   O  ......        ",
"    ..o++++o.. O    ",
" O .o++++++++o.     ",
"  .o++++++++++o.    ",
"  .++++++++++++. O  ",
" .o++++++++++++o.   ",
" .+++++++++++++o.   ",
" .+o+++++++++o+o.   ",
" .+OOOoooooo+oooo.O ",
" .+.@XXXooooooooo.  ",
" .o.X&#&XXXXooooo.  ",
"  ..X#&#XO@Xooooo.  ",
"   .X&#&XX%@oooo+.  ",
"   .%XXX@%%@oo+o+.  ",
"    .@@@@@@.oo+++.  ",
"     .......+++oo.  ",
"     .O&&$$.ooo..   ",
"    .......$...     ",
"   .$&&&&&&$.       ",
"   .$&&$$$$$.       ",
"   .$$$....$.       ",
"    ...$$$$$.       ",
"     .XXXXX.        ",
"      .....         ",
"                    "
};
