/* XPM */
static char *_f4941e28ace4da5808f8f64671f5205sU6ywy0Tr8QSU3bv[] = {
/* columns rows colors chars-per-pixel */
"24 28 9 1 ",
"  c None",
". c black",
"X c #28282D",
"o c #24643A",
"O c #485058",
"+ c #65707A",
"@ c #389A5A",
"# c #A0A8B0",
"$ c #D8D8E0",
/* pixels */
"                        ",
"                        ",
"       O  .....  O      ",
"        ..ooooo..       ",
"    O ..o@@@@@@@o.. O   ",
"     .o@@@@@@@@@@@o.    ",
"     .@@@@@@@@@@@@@.    ",
"    .o@@@@@@@@@@@@@o.   ",
"    .o@@@@@@@@@@@@@o.   ",
"   O.o@o@@o@@@o@@o@o.O  ",
"    .ooo@ooo@ooo@ooo.   ",
"    .ooooooo@ooooooo.   ",
"    .ooooooooooooooo.   ",
"    .ooooooooooooooo.   ",
"    .o@ooooooooooo@o.   ",
"    .@@o@ooooooo@o@@.   ",
"    .o@@@oo@@@oo@@@o.   ",
"     .oo@@@@@@@@@oo.    ",
"    .#..ooooooooo..#.   ",
"   .#$$#.........#$$#.  ",
"   .##$.##$$$$$##.$##.  ",
"   .###.##$$$$$##.###.  ",
"    ....#########....   ",
"       .+++++++++.      ",
"       .XXX...XXX.      ",
"        ...   ...       ",
"                        ",
"                        "
};
