/* XPM */
static char *_8844d1ffb65411ed5f57f98e88de89flxSGX9JDni78Qe5v[] = {
/* columns rows colors chars-per-pixel */
"20 26 11 1 ",
"  c None",
". c black",
"X c #28282D",
"o c #24643A",
"O c #485058",
"+ c #389A5A",
"@ c #BFA47A",
"# c #45B8BE",
"$ c #A0A8B0",
"% c #F5D9B0",
"& c #D8D8E0",
/* pixels */
"                    ",
"       ......  O    ",
"   O ..o++++o..     ",
"    .o++++++++o. O  ",
"   .o++++++++++o.   ",
" O .++++++++O+++.   ",
"  .o++++++++oX++o.  ",
"  .o++++++++oX+++.  ",
"  .o+o+++++oooX++.  ",
"O.oooo+oooooooX++.  ",
" .oooooooooXXXX++.  ",
" .oooooXXXX&#&X+o.  ",
" .oooooX@OX#&Xoo.   ",
" .+oooo@%XX&#XX.    ",
" .+o+oo@%%@XXX@.    ",
" .+++oo.@@@@@@.     ",
" .oo+++.......      ",
"  ..ooo.$$&&O.      ",
"    ...$.......     ",
"      .$&&&&&&$.    ",
"      .$$$$$&&$.    ",
"      .$....$$$.    ",
"      .$$$$$...     ",
"       .XXXXX.      ",
"        .....       ",
"                    "
};
